<svg width="63" height="11" viewBox="0 0 63 11" fill="none" xmlns="http://www.w3.org/2000/svg">
<path d="M0 3.86105C0 5.9617 1.5132 7.7221 3.48631 7.7221C4.50994 7.7221 5.29622 7.20434 5.62259 6.73095V7.55938H7.65504V0.162727H5.62259V0.991151C5.29622 0.517766 4.50994 0 3.48631 0C1.5132 0 0 1.7604 0 3.86105ZM5.78578 3.86105C5.78578 5.01493 5.02918 5.87294 3.91653 5.87294C2.80388 5.87294 2.04728 5.01493 2.04728 3.86105C2.04728 2.70717 2.80388 1.84916 3.91653 1.84916C5.02918 1.84916 5.78578 2.70717 5.78578 3.86105Z" fill="black"/>
<path d="M9.63092 7.55938H11.6634V3.94981C11.6634 2.52965 12.3755 1.84916 13.3101 1.84916C14.1557 1.84916 14.6156 2.50007 14.6156 3.56518V7.55938H16.648V3.22494C16.648 1.30181 15.5799 0 13.7848 0C12.8205 0 12.0491 0.414213 11.6634 1.00594V0.162727H9.63092V7.55938Z" fill="black"/>
<path d="M18.0371 3.86105C18.0371 5.9617 19.5503 7.7221 21.5234 7.7221C22.5471 7.7221 23.3333 7.20434 23.6597 6.73095V7.55938H25.6921V0.162727H23.6597V0.991151C23.3333 0.517766 22.5471 0 21.5234 0C19.5503 0 18.0371 1.7604 18.0371 3.86105ZM23.8229 3.86105C23.8229 5.01493 23.0663 5.87294 21.9536 5.87294C20.841 5.87294 20.0844 5.01493 20.0844 3.86105C20.0844 2.70717 20.841 1.84916 21.9536 1.84916C23.0663 1.84916 23.8229 2.70717 23.8229 3.86105Z" fill="black"/>
<path d="M27.5197 8.01797C27.6532 9.60085 29.0329 10.7991 31.1395 10.7991C33.0681 10.7991 34.878 9.77837 34.878 7.10078V0.162727H32.8456V0.991151C32.4747 0.429006 31.6587 0 30.7093 0C28.7807 0 27.2081 1.65685 27.2081 3.7427C27.2081 5.81377 28.7807 7.47062 30.7093 7.47062C31.6587 7.47062 32.4747 7.04161 32.8456 6.49426V7.36706C32.8456 8.53573 32.0741 9.11267 31.184 9.11267C30.3384 9.11267 29.7598 8.77243 29.4928 8.01797H27.5197ZM33.0087 3.7427C33.0087 4.867 32.1631 5.63625 31.1395 5.63625C30.1159 5.63625 29.2554 4.867 29.2554 3.7427C29.2554 2.60362 30.1159 1.84916 31.1395 1.84916C32.1631 1.84916 33.0087 2.60362 33.0087 3.7427Z" fill="black"/>
<path d="M36.8532 7.55938H38.8856V4.02378C38.8856 2.81073 39.5235 2.05627 40.4878 2.05627C40.8142 2.05627 41.0961 2.11544 41.4076 2.21899V0.162727C41.1554 0.0887604 40.9329 0.0739664 40.7252 0.0739664C39.8944 0.0739664 39.1378 0.621319 38.8856 1.34619V0.162727H36.8532V7.55938Z" fill="black"/>
<path d="M41.9852 3.86105C41.9852 5.9617 43.4984 7.7221 45.4715 7.7221C46.4951 7.7221 47.2814 7.20434 47.6078 6.73095V7.55938H49.6402V0.162727H47.6078V0.991151C47.2814 0.517766 46.4951 0 45.4715 0C43.4984 0 41.9852 1.7604 41.9852 3.86105ZM47.771 3.86105C47.771 5.01493 47.0143 5.87294 45.9017 5.87294C44.789 5.87294 44.0324 5.01493 44.0324 3.86105C44.0324 2.70717 44.789 1.84916 45.9017 1.84916C47.0143 1.84916 47.771 2.70717 47.771 3.86105Z" fill="black"/>
<path d="M51.6161 7.55938H53.6485V3.94981C53.6485 2.52965 54.2568 1.84916 55.1321 1.84916C55.9332 1.84916 56.2892 2.51486 56.2892 3.60956V7.55938H58.3217V3.94981C58.3217 2.52965 58.9299 1.84916 59.8052 1.84916C60.6063 1.84916 60.9624 2.51486 60.9624 3.60956V7.55938H62.9948V3.26932C62.9948 1.27222 61.986 0 60.2206 0C59.375 0 58.381 0.443799 57.9211 1.36098C57.4761 0.502972 56.7046 0 55.6216 0C54.7167 0 54.0491 0.429006 53.6485 1.00594V0.162727H51.6161V7.55938Z" fill="black"/>
</svg>
