<svg width="138" height="138" viewBox="0 0 138 138" fill="none" xmlns="http://www.w3.org/2000/svg">
<path d="M0 72.4202C0 94.0814 17.5599 111.641 39.2211 111.641C60.8822 111.641 78.4421 94.0814 78.4421 72.4202C78.4421 50.7591 60.8822 33.1992 39.2211 33.1992C17.5599 33.1992 0 50.7591 0 72.4202Z" fill="black"/>
<path d="M85.7031 85.4911C85.7031 99.9319 97.4097 111.638 111.85 111.638C126.291 111.638 137.998 99.9319 137.998 85.4911C137.998 71.0503 126.291 59.3438 111.85 59.3438C97.4097 59.3438 85.7031 71.0503 85.7031 85.4911Z" fill="black"/>
<path d="M77.1172 41.2206C77.1172 49.6267 83.9317 56.4412 92.3378 56.4412C100.744 56.4412 107.558 49.6267 107.558 41.2206C107.558 32.8145 100.744 26 92.3378 26C83.9317 26 77.1172 32.8145 77.1172 41.2206Z" fill="black"/>
</svg>
