<svg width="1176" height="1176" viewBox="0 0 1176 1176" fill="none" xmlns="http://www.w3.org/2000/svg">
<path d="M1099.9 697.259C1052.07 697.259 1028.61 660.531 1028.61 615.976C1028.61 571.421 1052.07 534.694 1099.9 534.694C1115.54 534.694 1138.4 540.714 1149.83 559.078H1150.43V479H1176V693.947H1150.43V672.874H1149.83C1138.4 691.237 1115.54 697.259 1099.9 697.259ZM1055.68 615.976C1055.68 646.381 1068.92 674.68 1103.51 674.68C1137.5 674.68 1151.34 646.381 1151.34 615.976C1151.34 586.473 1137.5 557.272 1103.51 557.272C1068.92 557.272 1055.68 586.473 1055.68 615.976Z" fill="black"/>
<path d="M901.993 538.304V562.99H902.595C913.423 543.723 930.869 534.691 953.128 534.691C994.035 534.691 1006.67 558.173 1006.67 591.59V693.945H981.101V588.579C981.101 569.613 969.07 557.27 949.518 557.27C918.537 557.27 903.497 578.042 903.497 606.039V693.945H877.93V538.304H901.993Z" fill="black"/>
<path d="M765.197 697.257C733.013 697.257 713.461 679.494 713.461 650.895C713.461 621.694 735.72 608.147 776.327 604.835C806.406 602.427 820.242 598.212 820.242 583.16C820.242 566.903 805.203 556.969 784.749 556.969C763.092 556.969 747.752 565.699 745.947 587.675H719.778C719.778 558.775 746.849 534.691 784.749 534.691C819.039 534.691 845.809 551.851 845.809 585.869V671.367H856.938V693.945H839.192C829.567 693.945 821.445 685.817 821.445 676.184V670.162H820.844C807.609 687.623 785.651 697.257 765.197 697.257ZM740.232 650.895C740.232 666.249 753.467 674.076 770.01 674.076C796.78 674.076 820.844 656.314 820.844 626.812V613.565C810.918 620.489 796.78 622.597 781.44 624.102C754.971 626.812 740.232 634.338 740.232 650.895Z" fill="black"/>
<path d="M632.564 697.257C589.25 697.257 565.488 672.571 565.488 644.272H592.258C594.063 663.84 606.997 675.581 632.564 675.581C655.123 675.581 670.163 666.549 670.163 652.099C670.163 641.563 661.139 634.338 642.49 630.424L615.72 624.704C584.137 618.081 569.398 602.126 569.398 581.053C569.398 553.356 593.16 534.691 629.556 534.691C668.057 534.691 691.82 557.27 692.722 586.17H666.252C664.147 564.194 649.408 555.464 629.556 555.464C608.801 555.464 594.965 565.398 594.965 579.246C594.965 590.084 604.891 597.31 623.54 600.922L650.311 606.039C683.999 612.361 696.632 627.714 696.632 650.294C696.632 677.689 671.065 697.257 632.564 697.257Z" fill="black"/>
<path d="M481.002 697.257C436.786 697.257 407.91 665.044 407.91 615.974C407.91 566.903 435.883 534.691 480.099 534.691C524.316 534.691 551.086 566.903 551.086 615.974C551.086 618.684 551.086 621.694 550.785 624.404H434.078C436.786 653.604 452.727 674.979 481.002 674.979C500.854 674.979 515.893 663.84 523.112 644.272H549.582C540.859 677.086 516.194 697.257 481.002 697.257ZM434.981 601.524H524.316C520.104 573.526 503.862 556.668 480.099 556.668C454.231 556.668 438.891 575.634 434.981 601.524Z" fill="black"/>
<path d="M309.295 697.257C268.387 697.257 255.754 673.775 255.754 640.36V538.305H281.321V643.369C281.321 662.336 293.353 674.679 312.904 674.679C343.885 674.679 358.925 653.906 358.925 625.91V538.305H384.492V693.945H360.429V668.959H359.827C348.999 688.226 331.553 697.257 309.295 697.257Z" fill="black"/>
<path d="M198.941 693.947V479H224.509V693.947H198.941Z" fill="black"/>
<path d="M0 693.947V479H91.7411C130.242 479 160.02 492.246 160.02 537.102C160.02 554.563 147.989 571.722 128.137 579.851V580.452C154.606 585.872 169.044 605.741 169.044 632.232C169.044 663.842 146.485 693.947 103.773 693.947H0ZM28.5751 669.863H100.163C124.828 669.863 140.469 654.811 140.469 631.33C140.469 603.332 117.91 595.505 93.8466 595.505H28.5751V669.863ZM28.5751 571.421H85.7253C118.211 571.421 131.445 559.68 131.445 537.102C131.445 507.298 110.39 503.084 85.7253 503.084H28.5751V571.421Z" fill="black"/>
</svg>
