<svg width="144" height="89" viewBox="0 0 144 89" fill="none" xmlns="http://www.w3.org/2000/svg">
<path d="M143.999 25.7786C143.999 10.0547 134.865 0 117.886 0C100.907 0 86.6143 18.6119 94.9963 36.689L103.056 33.9079C97.7903 16.0448 109.826 8.77114 117.886 8.77114C127.665 8.77114 134.865 13.7985 134.865 25.7786C134.865 40.7537 113.48 54.4453 94.8888 54.4453C93.5058 54.4453 92.1572 54.3768 90.8397 54.2484L68.9905 1.17662H58.8891L61.2296 6.84577C57.404 18.8558 54.4101 29.0656 51.9062 37.7009C45.5681 34.8193 38.7733 32.7303 30.8416 32.7303C13.8626 32.7313 0 44.0696 0 62.4676C0 74.1268 9.13426 89.3159 26.1132 88.995C43.1685 88.6591 47.9516 80.9908 56.9849 48.5119C65.368 52.9969 73.6533 58.1516 83.4205 60.6022L85.6482 65.9975C90.6989 78.2985 92.2034 83.6467 85.1109 83.6467H77.2662V86.7487H116.167V83.6467H106.926C100.263 83.6467 100.8 78.2985 95.1048 64.6069L94.0442 62.0312C94.3247 62.0366 94.6062 62.0398 94.8899 62.0398C122.615 62.0398 144 42.4652 144 25.7786H143.999ZM26.1132 80.4378C18.5909 80.4378 8.81187 73.0572 8.81187 62.4676C8.81187 51.1293 16.7641 40.4328 30.8416 40.4328C37.7643 40.4328 43.9143 42.3026 49.8075 44.9414C42.0101 71.7736 38.8937 80.4378 26.1132 80.4378ZM58.9665 41.2575C60.8664 34.2042 62.9737 26.154 65.411 16.9775L79.7399 51.6888C72.4218 49.0617 65.8204 44.9692 58.9665 41.2575Z" fill="black"/>
</svg>
